<?xml version="1.0" standalone="no"?>
<!DOCTYPE svg PUBLIC "-//W3C//DTD SVG 20010904//EN"
 "http://www.w3.org/TR/2001/REC-SVG-20010904/DTD/svg10.dtd">
<svg version="1.0" xmlns="http://www.w3.org/2000/svg"
 width="500.000000pt" height="500.000000pt" viewBox="0 0 500.000000 500.000000"
 preserveAspectRatio="xMidYMid meet">

<g transform="translate(0.000000,500.000000) scale(0.100000,-0.100000)"
fill="#000000" stroke="none">
<path d="M2353 3098 c-34 -11 -62 -39 -200 -200 l-83 -96 -37 10 c-61 16 -66
25 -38 66 47 74 40 126 -24 169 -35 23 -85 30 -110 14 -23 -15 1 -36 42 -37
46 -2 77 -28 77 -66 0 -32 -21 -78 -44 -97 -37 -31 1 -80 73 -96 32 -7 33 -9
27 -44 -3 -20 -9 -60 -12 -88 -4 -29 -11 -53 -16 -53 -15 0 -48 -64 -48 -94 0
-16 7 -37 15 -46 14 -15 14 -27 1 -106 -8 -49 -11 -93 -6 -97 4 -5 18 -7 31
-5 18 2 32 19 55 63 52 103 55 108 65 98 11 -11 14 -23 30 -166 9 -84 17 -114
35 -139 22 -30 23 -33 8 -55 -16 -26 -16 -62 1 -66 6 -1 11 14 13 33 4 41 17
60 42 60 21 0 117 -61 200 -129 82 -66 105 -66 165 -6 25 24 45 48 45 53 0 5
-18 16 -39 24 -21 9 -47 27 -56 42 -17 25 -17 29 0 72 21 54 52 77 106 76 51
-1 81 -20 103 -66 17 -37 30 -44 41 -26 4 6 21 21 40 33 124 84 155 109 155
128 0 16 4 19 20 14 11 -3 20 -2 20 3 0 13 -53 83 -89 116 -24 23 -31 38 -31
68 0 60 -63 111 -96 78 -6 -6 -32 -11 -58 -12 -43 -2 -51 1 -78 31 -24 27 -29
39 -24 64 9 46 33 77 72 93 19 8 34 17 34 19 0 3 -14 32 -30 65 -28 55 -33 60
-64 60 -45 0 -58 18 -50 69 6 39 6 41 -20 41 -35 0 -42 -22 -21 -65 9 -20 15
-43 13 -53 -4 -19 -86 -62 -175 -93 -46 -15 -82 -20 -138 -18 -41 2 -75 7 -75
11 0 4 14 8 31 8 71 0 329 82 329 104 0 7 -7 21 -15 32 -17 23 -19 58 -5 85
10 17 7 19 -20 19 -16 0 -30 5 -30 10 0 6 -6 10 -13 10 -7 0 -17 19 -23 43 -9
40 -10 42 -49 44 -22 1 -55 -3 -72 -9z m-260 -586 c44 -46 37 -58 -30 -52 -51
4 -58 8 -61 28 -8 54 48 69 91 24z"/>
<path d="M2512 3050 c0 -14 2 -19 5 -12 2 6 2 18 0 25 -3 6 -5 1 -5 -13z"/>
<path d="M2660 2995 c12 -15 14 -52 5 -82 -7 -20 -4 -23 23 -23 30 0 31 2 28
38 -2 20 -4 44 -5 53 0 10 -12 18 -31 21 -22 3 -27 1 -20 -7z"/>
<path d="M2750 2931 c0 -17 4 -32 8 -35 4 -2 6 11 4 30 -5 42 -12 45 -12 5z"/>
<path d="M2760 2848 c0 -7 25 -51 55 -97 72 -110 72 -120 -7 -80 -53 27 -82
16 -97 -37 -21 -76 34 -97 128 -49 55 27 60 25 80 -35 10 -31 148 -250 157
-250 10 0 -215 543 -229 552 -20 13 -87 10 -87 -4z"/>
<path d="M1737 2486 c-13 -13 -13 -23 0 -78 11 -46 12 -68 4 -86 -6 -13 -7
-21 -3 -18 5 3 34 -59 66 -137 31 -78 61 -149 66 -157 7 -11 17 4 43 60 56
123 58 112 -30 150 -43 18 -84 40 -90 49 -21 25 -16 69 11 86 13 9 30 30 37
48 7 18 17 35 21 38 14 10 -3 40 -29 50 -36 13 -80 11 -96 -5z"/>
<path d="M3123 2278 c-13 -6 -23 -14 -23 -19 0 -12 40 -102 44 -98 7 9 15 129
8 128 -4 0 -17 -5 -29 -11z"/>
<path d="M2995 2184 c-23 -21 -32 -33 -20 -29 11 4 39 14 63 22 35 12 41 18
31 29 -17 21 -30 17 -74 -22z"/>
<path d="M2620 2142 c-19 -20 -30 -41 -30 -59 0 -49 15 -54 88 -27 51 18 68
21 74 11 4 -6 5 4 2 23 -8 44 -29 66 -71 75 -28 6 -38 2 -63 -23z"/>
<path d="M3016 2011 c-19 -21 -12 -45 19 -71 14 -11 21 -8 55 25 54 52 52 65
-8 65 -35 0 -54 -5 -66 -19z"/>
<path d="M2234 1785 c-8 -13 -13 -33 -10 -43 7 -21 94 -62 130 -61 21 0 21 0
-1 16 -13 8 -23 24 -23 35 0 67 -63 103 -96 53z"/>
<path d="M2473 1750 c-33 -33 -58 -60 -54 -60 4 0 11 4 17 9 5 5 43 19 84 31
41 12 77 24 79 26 7 6 -41 54 -53 54 -6 0 -39 -27 -73 -60z"/>
</g>
</svg>
